<svg width="25" height="33" viewBox="0 0 25 33" fill="none" xmlns="http://www.w3.org/2000/svg">
<path d="M2.26772 19.1992C2.02864 19.2002 1.79423 19.1197 1.59174 18.9672C1.38924 18.8146 1.22696 18.5963 1.12376 18.3374C1.02056 18.0786 0.980674 17.79 1.00873 17.505C1.03679 17.2201 1.13164 16.9505 1.28226 16.7277L13.79 1.26172C13.8838 1.13174 14.0117 1.04391 14.1526 1.01264C14.2935 0.98137 14.4391 1.00852 14.5654 1.08962C14.6918 1.17073 14.7914 1.30098 14.8479 1.45899C14.9045 1.61701 14.9146 1.79339 14.8766 1.9592L12.4508 11.0872C12.3793 11.3169 12.3553 11.5641 12.3808 11.8074C12.4063 12.0507 12.4807 12.283 12.5975 12.4843C12.7143 12.6856 12.87 12.8498 13.0513 12.963C13.2326 13.0762 13.434 13.1349 13.6384 13.1341H22.4823C22.7214 13.1331 22.9558 13.2136 23.1583 13.3661C23.3608 13.5187 23.523 13.7371 23.6262 13.9959C23.7294 14.2547 23.7693 14.5434 23.7413 14.8283C23.7132 15.1133 23.6184 15.3828 23.4677 15.6056L10.96 31.0716C10.8662 31.2016 10.7383 31.2894 10.5974 31.3207C10.4565 31.352 10.3109 31.3248 10.1846 31.2437C10.0582 31.1626 9.95862 31.0324 9.90208 30.8743C9.84554 30.7163 9.83545 30.5399 9.87345 30.3741L12.2992 21.2462C12.3707 21.0164 12.3947 20.7693 12.3692 20.5259C12.3437 20.2826 12.2693 20.0503 12.1525 19.849C12.0357 19.6478 11.88 19.4835 11.6987 19.3703C11.5174 19.2571 11.316 19.1984 11.1116 19.1992H2.26772Z" stroke="white" stroke-width="1.5" stroke-linecap="round" stroke-linejoin="round"/>
</svg>
