<svg width="37" height="30" viewBox="0 0 37 30" fill="none" xmlns="http://www.w3.org/2000/svg">
<path fill-rule="evenodd" clip-rule="evenodd" d="M18.6947 14.4079C17.248 14.4079 16.0711 13.2338 16.0711 11.7824C16.0711 10.3356 17.248 9.16156 18.6947 9.16156C20.1411 9.16156 21.3189 10.3356 21.3189 11.7824C21.3188 13.2338 20.141 14.4079 18.6947 14.4079ZM22.4157 11.7823C22.4157 9.73463 20.7461 8.06134 18.6947 8.06134C16.6428 8.06134 14.9737 9.73463 14.9737 11.7823C14.9737 13.8346 16.6428 15.5079 18.6947 15.5079C20.7461 15.508 22.4157 13.8347 22.4157 11.7823ZM31.4279 21.1472H34.6331L30.9713 15.6559C30.9107 15.568 30.8793 15.4617 30.8793 15.3509V11.8286C30.8368 7.28484 27.7191 1.98301 22.0233 1.09555H19.243V3.08781H19.7926C19.9085 3.08767 20.0214 3.1243 20.1151 3.19243C20.2088 3.26055 20.2784 3.35665 20.314 3.46689L20.7813 4.90442C21.232 5.03848 21.6679 5.22339 22.0834 5.44523L23.4326 4.75652C23.5361 4.70482 23.6532 4.68682 23.7674 4.70506C23.8817 4.7233 23.9873 4.77687 24.0696 4.85824L25.6218 6.41131C25.79 6.57771 25.8302 6.83657 25.7225 7.04458L25.0352 8.39432C25.257 8.8103 25.4378 9.24684 25.5751 9.69779L27.0145 10.1647C27.1245 10.2009 27.2202 10.2709 27.2882 10.3646C27.3562 10.4584 27.3928 10.5712 27.3931 10.687V12.8826C27.3928 12.9983 27.3562 13.1111 27.2882 13.2049C27.2202 13.2986 27.1245 13.3686 27.0145 13.4049L25.5751 13.8717C25.4386 14.323 25.2577 14.7596 25.0352 15.1752L25.7225 16.5249C25.8302 16.7329 25.79 16.9918 25.6218 17.1582L24.0696 18.7113C23.9873 18.7926 23.8817 18.8462 23.7674 18.8645C23.6532 18.8827 23.5361 18.8647 23.4326 18.813L22.0834 18.1243C21.6679 18.3457 21.2322 18.5268 20.7822 18.6651L20.3139 20.1026C20.2783 20.2129 20.2087 20.309 20.115 20.3771C20.0213 20.4452 19.9084 20.4818 19.7925 20.4817H19.2429V22.9778L28.3231 28.6309L30.912 21.5125C30.9911 21.2951 31.1968 21.1472 31.4279 21.1472ZM17.9958 19.3862H19.3937L19.829 18.0457C19.858 17.9581 19.9085 17.8792 19.9758 17.8162C20.0432 17.7533 20.1252 17.7082 20.2145 17.6851C20.7674 17.5418 21.2985 17.3246 21.7912 17.0287C21.953 16.9363 22.1518 16.927 22.3196 17.0149L23.5759 17.6527L24.5641 16.6636L23.9239 15.4109C23.8384 15.2445 23.8453 15.0411 23.9411 14.8793C24.2331 14.3878 24.4533 13.857 24.5951 13.3031C24.6418 13.1228 24.7777 12.9749 24.957 12.9194L26.2961 12.4849V11.0843L24.9561 10.6498C24.7777 10.5943 24.6418 10.4463 24.5951 10.2661C24.4531 9.71226 24.2329 9.1815 23.9411 8.68985C23.8454 8.52812 23.8385 8.3247 23.9239 8.15829L24.5641 6.90559L23.5759 5.91642L22.3196 6.55436C22.1518 6.64223 21.953 6.63298 21.7912 6.54052C21.2975 6.24465 20.7674 6.02747 20.2145 5.88416C20.1252 5.8611 20.0432 5.81601 19.9758 5.75302C19.9085 5.69003 19.858 5.61114 19.829 5.52359L19.3937 4.18311H17.9958L17.5599 5.52359C17.5311 5.61106 17.4808 5.6899 17.4136 5.7529C17.3464 5.81589 17.2645 5.86102 17.1753 5.88416C16.6225 6.02747 16.0914 6.24473 15.5977 6.54052C15.4359 6.63298 15.2371 6.64223 15.0693 6.55436L13.8139 5.91642L12.8247 6.90559L13.4649 8.15829C13.5504 8.3247 13.5439 8.52803 13.4487 8.68985C13.1564 9.1813 12.9362 9.71212 12.7947 10.2661C12.748 10.4463 12.6111 10.5943 12.4327 10.6498L11.0927 11.0843V12.4849L12.4327 12.9194C12.6111 12.9748 12.748 13.1228 12.7947 13.3031C12.9362 13.857 13.1565 14.3878 13.4487 14.8793C13.5439 15.0411 13.5504 15.2399 13.4649 15.4109L12.8247 16.6636L13.8139 17.6527L15.0693 17.0149C15.2371 16.9271 15.4368 16.9363 15.5985 17.0287C16.0913 17.3246 16.6224 17.5418 17.1752 17.6851C17.3569 17.7314 17.502 17.87 17.5598 18.0457L17.9958 19.3862ZM8.06427 19.3722C7.64532 19.7897 6.92668 19.4913 6.92668 18.9008C6.92668 18.3076 7.64722 18.0133 8.06427 18.4292C8.32356 18.6882 8.32356 19.1134 8.06427 19.3722ZM2.99535 16.7745C2.73562 17.0334 2.31312 17.0334 2.05331 16.7745C1.63012 16.3528 1.94347 15.6375 2.52433 15.6375C3.10519 15.6374 3.41784 16.3527 2.99535 16.7745ZM2.23494 7.7332C1.97824 7.99742 1.55618 8.00002 1.2929 7.7332C0.875165 7.30975 1.17338 6.60072 1.76392 6.60072C2.36164 6.60072 2.6487 7.32022 2.23494 7.7332ZM8.06427 5.14002C7.6467 5.55611 6.92668 5.26145 6.92668 4.66848C6.92668 4.07439 7.64713 3.78171 8.06427 4.19703C8.32356 4.45598 8.32356 4.88116 8.06427 5.14002ZM36.1141 21.3923L31.9766 15.1845V11.824C31.953 9.31413 31.0752 6.67008 29.5693 4.57153C28.3079 2.81045 25.9958 0.587084 22.1476 0.00467046L18.6947 0C18.392 0 18.1461 0.245022 18.1461 0.545397V1.03077L10.6583 1.05386C10.5136 1.05386 10.3745 1.10939 10.2723 1.21568L8.38869 3.09698C7.22152 2.50929 5.82975 3.35256 5.82975 4.66857C5.82975 6.24767 7.74236 7.01284 8.83938 5.9166C9.3801 5.3763 9.51036 4.53987 9.1657 3.87356L10.8879 2.14941L18.146 2.12632V3.08781H17.5973C17.4814 3.08779 17.3684 3.12445 17.2746 3.19254C17.1808 3.26064 17.1109 3.35667 17.075 3.46689L16.6077 4.90442C16.1574 5.03848 15.7211 5.22339 15.3056 5.44523L13.9563 4.75652C13.8528 4.70488 13.7357 4.68692 13.6215 4.70516C13.5073 4.7234 13.4016 4.77693 13.3193 4.85824L11.7671 6.41131C11.5997 6.57771 11.5587 6.83657 11.6663 7.04458L12.3537 8.39432C12.3324 8.43592 12.3111 8.47752 12.2904 8.51912L3.74451 8.46827L3.33594 8.06151C3.92501 6.89625 3.07699 5.50076 1.76383 5.50076C0.207387 5.50076 -0.594103 7.40126 0.517189 8.50987C1.06094 9.05241 1.88872 9.18188 2.56117 8.83809L3.12785 9.40667C3.23029 9.50802 3.36879 9.56455 3.51289 9.56382L11.841 9.61467C11.8322 9.64244 11.8225 9.6702 11.8142 9.69788L10.3743 10.1647C10.2643 10.201 10.1686 10.271 10.1006 10.3647C10.0327 10.4585 9.99596 10.5713 9.99573 10.687V12.8826C9.99596 12.9984 10.0327 13.1112 10.1006 13.205C10.1686 13.2987 10.2643 13.3687 10.3743 13.4049L11.8142 13.8718C11.8234 13.8996 11.8345 13.9319 11.8433 13.9596L4.27278 14.0058C4.12883 14.0052 3.99051 14.0617 3.88817 14.1629L3.32097 14.7315C2.64844 14.3876 1.82109 14.5174 1.27742 15.0597C0.163624 16.1709 0.971686 18.0689 2.52407 18.0689C3.82615 18.0689 4.68948 16.6817 4.09617 15.5082L4.50474 15.1014L12.2943 15.0552C12.3142 15.0922 12.3332 15.1339 12.3535 15.1754L11.6662 16.5251C11.5585 16.7331 11.5997 16.992 11.7669 17.1584L13.3191 18.7115C13.4014 18.7928 13.5071 18.8463 13.6213 18.8645C13.7355 18.8828 13.8526 18.8648 13.9561 18.8132L15.3054 18.1245C15.7219 18.3463 16.1578 18.5312 16.6075 18.6653L17.0748 20.1028C17.1107 20.213 17.1806 20.3091 17.2744 20.3771C17.3682 20.4452 17.4812 20.4819 17.5971 20.4819H18.1458V21.4433L10.8878 21.4202L9.16457 19.696C9.49877 19.035 9.39152 18.2077 8.8392 17.653C8.15136 16.9689 7.03324 16.9689 6.34591 17.653C5.24405 18.7537 6.01873 20.6621 7.59256 20.6621C7.86621 20.6621 8.13934 20.5974 8.38851 20.4726L10.2721 22.3539C10.3743 22.4602 10.5134 22.5157 10.6581 22.5157L18.1459 22.5387V23.283C18.1461 23.3763 18.17 23.4681 18.2152 23.5497C18.2605 23.6314 18.3257 23.7002 18.4048 23.7498L28.3178 29.9207C28.6052 30.0933 29.0006 29.9775 29.123 29.6388L31.8114 22.2476H35.6577C36.093 22.2474 36.3556 21.7616 36.1141 21.3923Z" fill="white"/>
</svg>
